<mxfile host="app.diagrams.net" agent="Mozilla/5.0 (Windows NT 10.0; Win64; x64) AppleWebKit/537.36 (KHTML, like Gecko) Chrome/137.0.0.0 Safari/537.36 OPR/121.0.0.0" version="28.2.3">
  <diagram name="Página-1" id="5DiZXk_bdd4802nFoS2s">
    <mxGraphModel grid="1" page="1" gridSize="10" guides="1" tooltips="1" connect="1" arrows="1" fold="1" pageScale="1" pageWidth="827" pageHeight="1169" math="0" shadow="0">
      <root>
        <mxCell id="0" />
        <mxCell id="1" parent="0" />
        <mxCell id="Mp8SSyyGzro1OFm79wtc-1" style="edgeStyle=orthogonalEdgeStyle;rounded=0;orthogonalLoop=1;jettySize=auto;html=1;endArrow=none;endFill=0;" edge="1" parent="1" source="Mp8SSyyGzro1OFm79wtc-5" target="Mp8SSyyGzro1OFm79wtc-11">
          <mxGeometry relative="1" as="geometry" />
        </mxCell>
        <mxCell id="Mp8SSyyGzro1OFm79wtc-2" style="edgeStyle=orthogonalEdgeStyle;rounded=0;orthogonalLoop=1;jettySize=auto;html=1;entryX=0.5;entryY=1;entryDx=0;entryDy=0;" edge="1" parent="1" source="Mp8SSyyGzro1OFm79wtc-5" target="Mp8SSyyGzro1OFm79wtc-25">
          <mxGeometry relative="1" as="geometry" />
        </mxCell>
        <mxCell id="Mp8SSyyGzro1OFm79wtc-3" style="edgeStyle=orthogonalEdgeStyle;rounded=0;orthogonalLoop=1;jettySize=auto;html=1;entryX=0.5;entryY=1;entryDx=0;entryDy=0;" edge="1" parent="1" source="Mp8SSyyGzro1OFm79wtc-5" target="Mp8SSyyGzro1OFm79wtc-26">
          <mxGeometry relative="1" as="geometry" />
        </mxCell>
        <mxCell id="Mp8SSyyGzro1OFm79wtc-4" style="edgeStyle=orthogonalEdgeStyle;rounded=0;orthogonalLoop=1;jettySize=auto;html=1;entryX=0.5;entryY=1;entryDx=0;entryDy=0;" edge="1" parent="1" source="Mp8SSyyGzro1OFm79wtc-5" target="Mp8SSyyGzro1OFm79wtc-27">
          <mxGeometry relative="1" as="geometry" />
        </mxCell>
        <mxCell id="Mp8SSyyGzro1OFm79wtc-5" value="Biblioteca" style="rounded=0;whiteSpace=wrap;html=1;" vertex="1" parent="1">
          <mxGeometry x="320" y="230" width="120" height="60" as="geometry" />
        </mxCell>
        <mxCell id="Mp8SSyyGzro1OFm79wtc-6" value="contém" style="rhombus;whiteSpace=wrap;html=1;" vertex="1" parent="1">
          <mxGeometry x="510" y="220" width="80" height="80" as="geometry" />
        </mxCell>
        <mxCell id="Mp8SSyyGzro1OFm79wtc-7" style="edgeStyle=orthogonalEdgeStyle;rounded=0;orthogonalLoop=1;jettySize=auto;html=1;entryX=0.5;entryY=0;entryDx=0;entryDy=0;endArrow=none;endFill=0;" edge="1" parent="1" source="Mp8SSyyGzro1OFm79wtc-11" target="Mp8SSyyGzro1OFm79wtc-23">
          <mxGeometry relative="1" as="geometry" />
        </mxCell>
        <mxCell id="Mp8SSyyGzro1OFm79wtc-8" style="edgeStyle=orthogonalEdgeStyle;rounded=0;orthogonalLoop=1;jettySize=auto;html=1;" edge="1" parent="1" source="Mp8SSyyGzro1OFm79wtc-11" target="Mp8SSyyGzro1OFm79wtc-28">
          <mxGeometry relative="1" as="geometry" />
        </mxCell>
        <mxCell id="Mp8SSyyGzro1OFm79wtc-9" style="edgeStyle=orthogonalEdgeStyle;rounded=0;orthogonalLoop=1;jettySize=auto;html=1;entryX=0.5;entryY=1;entryDx=0;entryDy=0;" edge="1" parent="1" source="Mp8SSyyGzro1OFm79wtc-11" target="Mp8SSyyGzro1OFm79wtc-30">
          <mxGeometry relative="1" as="geometry" />
        </mxCell>
        <mxCell id="Mp8SSyyGzro1OFm79wtc-39" style="edgeStyle=orthogonalEdgeStyle;rounded=0;orthogonalLoop=1;jettySize=auto;html=1;entryX=0.5;entryY=1;entryDx=0;entryDy=0;" edge="1" parent="1" source="Mp8SSyyGzro1OFm79wtc-11" target="Mp8SSyyGzro1OFm79wtc-38">
          <mxGeometry relative="1" as="geometry" />
        </mxCell>
        <mxCell id="Mp8SSyyGzro1OFm79wtc-41" style="edgeStyle=orthogonalEdgeStyle;rounded=0;orthogonalLoop=1;jettySize=auto;html=1;entryX=0.5;entryY=1;entryDx=0;entryDy=0;" edge="1" parent="1" source="Mp8SSyyGzro1OFm79wtc-11" target="Mp8SSyyGzro1OFm79wtc-40">
          <mxGeometry relative="1" as="geometry" />
        </mxCell>
        <mxCell id="Mp8SSyyGzro1OFm79wtc-11" value="Livro" style="rounded=0;whiteSpace=wrap;html=1;" vertex="1" parent="1">
          <mxGeometry x="650" y="230" width="120" height="60" as="geometry" />
        </mxCell>
        <mxCell id="Mp8SSyyGzro1OFm79wtc-12" style="edgeStyle=orthogonalEdgeStyle;rounded=0;orthogonalLoop=1;jettySize=auto;html=1;entryX=0;entryY=0.5;entryDx=0;entryDy=0;endArrow=none;endFill=0;" edge="1" parent="1" source="Mp8SSyyGzro1OFm79wtc-17" target="Mp8SSyyGzro1OFm79wtc-23">
          <mxGeometry relative="1" as="geometry" />
        </mxCell>
        <mxCell id="Mp8SSyyGzro1OFm79wtc-13" style="edgeStyle=orthogonalEdgeStyle;rounded=0;orthogonalLoop=1;jettySize=auto;html=1;" edge="1" parent="1" source="Mp8SSyyGzro1OFm79wtc-17" target="Mp8SSyyGzro1OFm79wtc-33">
          <mxGeometry relative="1" as="geometry" />
        </mxCell>
        <mxCell id="Mp8SSyyGzro1OFm79wtc-15" style="edgeStyle=orthogonalEdgeStyle;rounded=0;orthogonalLoop=1;jettySize=auto;html=1;entryX=0.5;entryY=0;entryDx=0;entryDy=0;" edge="1" parent="1" source="Mp8SSyyGzro1OFm79wtc-17" target="Mp8SSyyGzro1OFm79wtc-32">
          <mxGeometry relative="1" as="geometry" />
        </mxCell>
        <mxCell id="Mp8SSyyGzro1OFm79wtc-52" style="edgeStyle=orthogonalEdgeStyle;rounded=0;orthogonalLoop=1;jettySize=auto;html=1;entryX=0.5;entryY=1;entryDx=0;entryDy=0;" edge="1" parent="1" source="Mp8SSyyGzro1OFm79wtc-17" target="Mp8SSyyGzro1OFm79wtc-50">
          <mxGeometry relative="1" as="geometry" />
        </mxCell>
        <mxCell id="Mp8SSyyGzro1OFm79wtc-17" value="Empréstimo" style="rounded=0;whiteSpace=wrap;html=1;" vertex="1" parent="1">
          <mxGeometry x="310" y="510" width="120" height="60" as="geometry" />
        </mxCell>
        <mxCell id="Mp8SSyyGzro1OFm79wtc-18" value="emprestado " style="rhombus;whiteSpace=wrap;html=1;" vertex="1" parent="1">
          <mxGeometry x="670" y="360" width="80" height="80" as="geometry" />
        </mxCell>
        <mxCell id="Mp8SSyyGzro1OFm79wtc-19" value="" style="edgeStyle=orthogonalEdgeStyle;rounded=0;orthogonalLoop=1;jettySize=auto;html=1;endArrow=none;endFill=0;" edge="1" parent="1" source="Mp8SSyyGzro1OFm79wtc-23" target="Mp8SSyyGzro1OFm79wtc-24">
          <mxGeometry relative="1" as="geometry" />
        </mxCell>
        <mxCell id="Mp8SSyyGzro1OFm79wtc-21" style="edgeStyle=orthogonalEdgeStyle;rounded=0;orthogonalLoop=1;jettySize=auto;html=1;entryX=0.5;entryY=1;entryDx=0;entryDy=0;" edge="1" parent="1" source="Mp8SSyyGzro1OFm79wtc-23" target="Mp8SSyyGzro1OFm79wtc-37">
          <mxGeometry relative="1" as="geometry" />
        </mxCell>
        <mxCell id="Mp8SSyyGzro1OFm79wtc-22" style="edgeStyle=orthogonalEdgeStyle;rounded=0;orthogonalLoop=1;jettySize=auto;html=1;entryX=0.5;entryY=0;entryDx=0;entryDy=0;" edge="1" parent="1" source="Mp8SSyyGzro1OFm79wtc-23" target="Mp8SSyyGzro1OFm79wtc-36">
          <mxGeometry relative="1" as="geometry" />
        </mxCell>
        <mxCell id="Mp8SSyyGzro1OFm79wtc-47" style="edgeStyle=orthogonalEdgeStyle;rounded=0;orthogonalLoop=1;jettySize=auto;html=1;entryX=0;entryY=0.5;entryDx=0;entryDy=0;" edge="1" parent="1" source="Mp8SSyyGzro1OFm79wtc-23" target="Mp8SSyyGzro1OFm79wtc-46">
          <mxGeometry relative="1" as="geometry" />
        </mxCell>
        <mxCell id="Mp8SSyyGzro1OFm79wtc-23" value="alunos" style="rounded=0;whiteSpace=wrap;html=1;" vertex="1" parent="1">
          <mxGeometry x="650" y="510" width="120" height="60" as="geometry" />
        </mxCell>
        <mxCell id="Mp8SSyyGzro1OFm79wtc-24" value="realiza" style="rhombus;whiteSpace=wrap;html=1;" vertex="1" parent="1">
          <mxGeometry x="510" y="500" width="80" height="80" as="geometry" />
        </mxCell>
        <mxCell id="Mp8SSyyGzro1OFm79wtc-25" value="Nome" style="ellipse;whiteSpace=wrap;html=1;" vertex="1" parent="1">
          <mxGeometry x="250" y="150" width="90" height="40" as="geometry" />
        </mxCell>
        <mxCell id="Mp8SSyyGzro1OFm79wtc-26" value="Endereço" style="ellipse;whiteSpace=wrap;html=1;" vertex="1" parent="1">
          <mxGeometry x="410" y="150" width="90" height="40" as="geometry" />
        </mxCell>
        <mxCell id="Mp8SSyyGzro1OFm79wtc-27" value="Telefone" style="ellipse;whiteSpace=wrap;html=1;" vertex="1" parent="1">
          <mxGeometry x="335" y="110" width="90" height="40" as="geometry" />
        </mxCell>
        <mxCell id="Mp8SSyyGzro1OFm79wtc-28" value="Título" style="ellipse;whiteSpace=wrap;html=1;" vertex="1" parent="1">
          <mxGeometry x="665" y="60" width="90" height="40" as="geometry" />
        </mxCell>
        <mxCell id="Mp8SSyyGzro1OFm79wtc-30" value="Autor" style="ellipse;whiteSpace=wrap;html=1;" vertex="1" parent="1">
          <mxGeometry x="720" y="150" width="90" height="40" as="geometry" />
        </mxCell>
        <mxCell id="Mp8SSyyGzro1OFm79wtc-32" value="dataderetirada" style="ellipse;whiteSpace=wrap;html=1;" vertex="1" parent="1">
          <mxGeometry x="160" y="560" width="90" height="40" as="geometry" />
        </mxCell>
        <mxCell id="Mp8SSyyGzro1OFm79wtc-33" value="DataDevolução" style="ellipse;whiteSpace=wrap;html=1;" vertex="1" parent="1">
          <mxGeometry x="325" y="420" width="90" height="40" as="geometry" />
        </mxCell>
        <mxCell id="Mp8SSyyGzro1OFm79wtc-36" value="nome" style="ellipse;whiteSpace=wrap;html=1;" vertex="1" parent="1">
          <mxGeometry x="810" y="580" width="90" height="40" as="geometry" />
        </mxCell>
        <mxCell id="Mp8SSyyGzro1OFm79wtc-37" value="RA" style="ellipse;whiteSpace=wrap;html=1;" vertex="1" parent="1">
          <mxGeometry x="810" y="460" width="90" height="40" as="geometry" />
        </mxCell>
        <mxCell id="Mp8SSyyGzro1OFm79wtc-38" value="AnoPublicação" style="ellipse;whiteSpace=wrap;html=1;" vertex="1" parent="1">
          <mxGeometry x="790" y="80" width="90" height="40" as="geometry" />
        </mxCell>
        <mxCell id="Mp8SSyyGzro1OFm79wtc-40" value="ISBN" style="ellipse;whiteSpace=wrap;html=1;" vertex="1" parent="1">
          <mxGeometry x="560" y="70" width="90" height="40" as="geometry" />
        </mxCell>
        <mxCell id="Mp8SSyyGzro1OFm79wtc-46" value="SERIE" style="ellipse;whiteSpace=wrap;html=1;" vertex="1" parent="1">
          <mxGeometry x="950" y="520" width="90" height="40" as="geometry" />
        </mxCell>
        <mxCell id="Mp8SSyyGzro1OFm79wtc-50" value="status(em aberto/devolução)" style="ellipse;whiteSpace=wrap;html=1;" vertex="1" parent="1">
          <mxGeometry x="150" y="450" width="110" height="50" as="geometry" />
        </mxCell>
        <mxCell id="Mp8SSyyGzro1OFm79wtc-53" value="BIBLIOTECA" style="ellipse;whiteSpace=wrap;html=1;" vertex="1" parent="1">
          <mxGeometry x="520" y="-100" width="190" height="80" as="geometry" />
        </mxCell>
      </root>
    </mxGraphModel>
  </diagram>
</mxfile>
